<svg id="Capa_1" data-name="Capa 1" xmlns="http://www.w3.org/2000/svg" viewBox="0 0 158.67 200"><defs><style>.cls-1{fill:#f26b1d;}</style></defs><title>photo-1517433367423-c7e5b0f35086</title><polygon class="cls-1" points="62.38 194.67 62.38 168.85 95.05 168.85 95.05 194.67 127.73 194.67 118.21 152.46 116.14 154.91 82.64 90.17 76.85 90.17 47.48 116.39 30.94 194.67 62.38 194.67"/><polygon class="cls-1" points="67.75 84.84 8.61 113.11 16.05 137.7 67.75 84.84"/><polygon class="cls-1" points="64.03 78.69 55.34 78.69 55.34 84.84 64.03 78.69"/><polygon class="cls-1" points="104.98 90.17 92.98 78.69 102.91 78.69 104.98 90.17"/><polygon class="cls-1" points="95.46 70.9 116.14 70.9 116.14 61.48 95.46 70.9"/><polygon class="cls-1" points="64.03 70.9 43.35 70.9 43.35 50 64.03 70.9"/><path class="cls-1" d="M67.75,64.35c-.83-1.23-51.29-51.23-51.29-51.23L38.18,5.33Z"/><polygon class="cls-1" points="76.44 60.45 82.64 60.45 114.08 30.74 80.2 12.3 57.83 23.77 76.44 60.45"/><path class="cls-1" d="M90.91,64.35c1.25.82,59.15-28,59.15-28L142.2,12.3Z"/><ellipse class="cls-1" cx="78.92" cy="75.31" rx="7.86" ry="7.79"/><polygon class="cls-1" points="90.92 86.07 118.21 145.08 142.62 137.7 90.92 86.07"/></svg>